<svg xmlns="http://www.w3.org/2000/svg" width="450" height="450" viewBox="0 0 450 450" shape-rendering="crispEdges">
<rect width="450" height="450" fill="#ffffff"/>
<rect x="80" y="80" width="10" height="10" fill="#000000"/>
<rect x="90" y="80" width="10" height="10" fill="#000000"/>
<rect x="100" y="80" width="10" height="10" fill="#000000"/>
<rect x="110" y="80" width="10" height="10" fill="#000000"/>
<rect x="120" y="80" width="10" height="10" fill="#000000"/>
<rect x="130" y="80" width="10" height="10" fill="#000000"/>
<rect x="140" y="80" width="10" height="10" fill="#000000"/>
<rect x="170" y="80" width="10" height="10" fill="#000000"/>
<rect x="180" y="80" width="10" height="10" fill="#000000"/>
<rect x="220" y="80" width="10" height="10" fill="#000000"/>
<rect x="240" y="80" width="10" height="10" fill="#000000"/>
<rect x="260" y="80" width="10" height="10" fill="#000000"/>
<rect x="270" y="80" width="10" height="10" fill="#000000"/>
<rect x="300" y="80" width="10" height="10" fill="#000000"/>
<rect x="310" y="80" width="10" height="10" fill="#000000"/>
<rect x="320" y="80" width="10" height="10" fill="#000000"/>
<rect x="330" y="80" width="10" height="10" fill="#000000"/>
<rect x="340" y="80" width="10" height="10" fill="#000000"/>
<rect x="350" y="80" width="10" height="10" fill="#000000"/>
<rect x="360" y="80" width="10" height="10" fill="#000000"/>
<rect x="80" y="90" width="10" height="10" fill="#000000"/>
<rect x="140" y="90" width="10" height="10" fill="#000000"/>
<rect x="160" y="90" width="10" height="10" fill="#000000"/>
<rect x="210" y="90" width="10" height="10" fill="#000000"/>
<rect x="220" y="90" width="10" height="10" fill="#000000"/>
<rect x="240" y="90" width="10" height="10" fill="#000000"/>
<rect x="250" y="90" width="10" height="10" fill="#000000"/>
<rect x="280" y="90" width="10" height="10" fill="#000000"/>
<rect x="300" y="90" width="10" height="10" fill="#000000"/>
<rect x="360" y="90" width="10" height="10" fill="#000000"/>
<rect x="80" y="100" width="10" height="10" fill="#000000"/>
<rect x="100" y="100" width="10" height="10" fill="#000000"/>
<rect x="110" y="100" width="10" height="10" fill="#000000"/>
<rect x="120" y="100" width="10" height="10" fill="#000000"/>
<rect x="140" y="100" width="10" height="10" fill="#000000"/>
<rect x="200" y="100" width="10" height="10" fill="#000000"/>
<rect x="210" y="100" width="10" height="10" fill="#000000"/>
<rect x="230" y="100" width="10" height="10" fill="#000000"/>
<rect x="250" y="100" width="10" height="10" fill="#000000"/>
<rect x="270" y="100" width="10" height="10" fill="#000000"/>
<rect x="280" y="100" width="10" height="10" fill="#000000"/>
<rect x="300" y="100" width="10" height="10" fill="#000000"/>
<rect x="320" y="100" width="10" height="10" fill="#000000"/>
<rect x="330" y="100" width="10" height="10" fill="#000000"/>
<rect x="340" y="100" width="10" height="10" fill="#000000"/>
<rect x="360" y="100" width="10" height="10" fill="#000000"/>
<rect x="80" y="110" width="10" height="10" fill="#000000"/>
<rect x="100" y="110" width="10" height="10" fill="#000000"/>
<rect x="110" y="110" width="10" height="10" fill="#000000"/>
<rect x="120" y="110" width="10" height="10" fill="#000000"/>
<rect x="140" y="110" width="10" height="10" fill="#000000"/>
<rect x="180" y="110" width="10" height="10" fill="#000000"/>
<rect x="200" y="110" width="10" height="10" fill="#000000"/>
<rect x="260" y="110" width="10" height="10" fill="#000000"/>
<rect x="270" y="110" width="10" height="10" fill="#000000"/>
<rect x="280" y="110" width="10" height="10" fill="#000000"/>
<rect x="300" y="110" width="10" height="10" fill="#000000"/>
<rect x="320" y="110" width="10" height="10" fill="#000000"/>
<rect x="330" y="110" width="10" height="10" fill="#000000"/>
<rect x="340" y="110" width="10" height="10" fill="#000000"/>
<rect x="360" y="110" width="10" height="10" fill="#000000"/>
<rect x="80" y="120" width="10" height="10" fill="#000000"/>
<rect x="100" y="120" width="10" height="10" fill="#000000"/>
<rect x="110" y="120" width="10" height="10" fill="#000000"/>
<rect x="120" y="120" width="10" height="10" fill="#000000"/>
<rect x="140" y="120" width="10" height="10" fill="#000000"/>
<rect x="170" y="120" width="10" height="10" fill="#000000"/>
<rect x="180" y="120" width="10" height="10" fill="#000000"/>
<rect x="190" y="120" width="10" height="10" fill="#000000"/>
<rect x="200" y="120" width="10" height="10" fill="#000000"/>
<rect x="210" y="120" width="10" height="10" fill="#000000"/>
<rect x="230" y="120" width="10" height="10" fill="#000000"/>
<rect x="260" y="120" width="10" height="10" fill="#000000"/>
<rect x="300" y="120" width="10" height="10" fill="#000000"/>
<rect x="320" y="120" width="10" height="10" fill="#000000"/>
<rect x="330" y="120" width="10" height="10" fill="#000000"/>
<rect x="340" y="120" width="10" height="10" fill="#000000"/>
<rect x="360" y="120" width="10" height="10" fill="#000000"/>
<rect x="80" y="130" width="10" height="10" fill="#000000"/>
<rect x="140" y="130" width="10" height="10" fill="#000000"/>
<rect x="160" y="130" width="10" height="10" fill="#000000"/>
<rect x="180" y="130" width="10" height="10" fill="#000000"/>
<rect x="190" y="130" width="10" height="10" fill="#000000"/>
<rect x="210" y="130" width="10" height="10" fill="#000000"/>
<rect x="230" y="130" width="10" height="10" fill="#000000"/>
<rect x="240" y="130" width="10" height="10" fill="#000000"/>
<rect x="260" y="130" width="10" height="10" fill="#000000"/>
<rect x="270" y="130" width="10" height="10" fill="#000000"/>
<rect x="300" y="130" width="10" height="10" fill="#000000"/>
<rect x="360" y="130" width="10" height="10" fill="#000000"/>
<rect x="80" y="140" width="10" height="10" fill="#000000"/>
<rect x="90" y="140" width="10" height="10" fill="#000000"/>
<rect x="100" y="140" width="10" height="10" fill="#000000"/>
<rect x="110" y="140" width="10" height="10" fill="#000000"/>
<rect x="120" y="140" width="10" height="10" fill="#000000"/>
<rect x="130" y="140" width="10" height="10" fill="#000000"/>
<rect x="140" y="140" width="10" height="10" fill="#000000"/>
<rect x="160" y="140" width="10" height="10" fill="#000000"/>
<rect x="180" y="140" width="10" height="10" fill="#000000"/>
<rect x="200" y="140" width="10" height="10" fill="#000000"/>
<rect x="220" y="140" width="10" height="10" fill="#000000"/>
<rect x="240" y="140" width="10" height="10" fill="#000000"/>
<rect x="260" y="140" width="10" height="10" fill="#000000"/>
<rect x="280" y="140" width="10" height="10" fill="#000000"/>
<rect x="300" y="140" width="10" height="10" fill="#000000"/>
<rect x="310" y="140" width="10" height="10" fill="#000000"/>
<rect x="320" y="140" width="10" height="10" fill="#000000"/>
<rect x="330" y="140" width="10" height="10" fill="#000000"/>
<rect x="340" y="140" width="10" height="10" fill="#000000"/>
<rect x="350" y="140" width="10" height="10" fill="#000000"/>
<rect x="360" y="140" width="10" height="10" fill="#000000"/>
<rect x="160" y="150" width="10" height="10" fill="#000000"/>
<rect x="180" y="150" width="10" height="10" fill="#000000"/>
<rect x="190" y="150" width="10" height="10" fill="#000000"/>
<rect x="200" y="150" width="10" height="10" fill="#000000"/>
<rect x="210" y="150" width="10" height="10" fill="#000000"/>
<rect x="220" y="150" width="10" height="10" fill="#000000"/>
<rect x="250" y="150" width="10" height="10" fill="#000000"/>
<rect x="260" y="150" width="10" height="10" fill="#000000"/>
<rect x="120" y="160" width="10" height="10" fill="#000000"/>
<rect x="130" y="160" width="10" height="10" fill="#000000"/>
<rect x="140" y="160" width="10" height="10" fill="#000000"/>
<rect x="150" y="160" width="10" height="10" fill="#000000"/>
<rect x="170" y="160" width="10" height="10" fill="#000000"/>
<rect x="190" y="160" width="10" height="10" fill="#000000"/>
<rect x="200" y="160" width="10" height="10" fill="#000000"/>
<rect x="210" y="160" width="10" height="10" fill="#000000"/>
<rect x="240" y="160" width="10" height="10" fill="#000000"/>
<rect x="260" y="160" width="10" height="10" fill="#000000"/>
<rect x="270" y="160" width="10" height="10" fill="#000000"/>
<rect x="300" y="160" width="10" height="10" fill="#000000"/>
<rect x="310" y="160" width="10" height="10" fill="#000000"/>
<rect x="350" y="160" width="10" height="10" fill="#000000"/>
<rect x="80" y="170" width="10" height="10" fill="#000000"/>
<rect x="90" y="170" width="10" height="10" fill="#000000"/>
<rect x="120" y="170" width="10" height="10" fill="#000000"/>
<rect x="170" y="170" width="10" height="10" fill="#000000"/>
<rect x="180" y="170" width="10" height="10" fill="#000000"/>
<rect x="200" y="170" width="10" height="10" fill="#000000"/>
<rect x="270" y="170" width="10" height="10" fill="#000000"/>
<rect x="280" y="170" width="10" height="10" fill="#000000"/>
<rect x="290" y="170" width="10" height="10" fill="#000000"/>
<rect x="320" y="170" width="10" height="10" fill="#000000"/>
<rect x="350" y="170" width="10" height="10" fill="#000000"/>
<rect x="360" y="170" width="10" height="10" fill="#000000"/>
<rect x="110" y="180" width="10" height="10" fill="#000000"/>
<rect x="140" y="180" width="10" height="10" fill="#000000"/>
<rect x="160" y="180" width="10" height="10" fill="#000000"/>
<rect x="170" y="180" width="10" height="10" fill="#000000"/>
<rect x="280" y="180" width="10" height="10" fill="#000000"/>
<rect x="290" y="180" width="10" height="10" fill="#000000"/>
<rect x="340" y="180" width="10" height="10" fill="#000000"/>
<rect x="360" y="180" width="10" height="10" fill="#000000"/>
<rect x="80" y="190" width="10" height="10" fill="#000000"/>
<rect x="90" y="190" width="10" height="10" fill="#000000"/>
<rect x="110" y="190" width="10" height="10" fill="#000000"/>
<rect x="120" y="190" width="10" height="10" fill="#000000"/>
<rect x="130" y="190" width="10" height="10" fill="#000000"/>
<rect x="150" y="190" width="10" height="10" fill="#000000"/>
<rect x="170" y="190" width="10" height="10" fill="#000000"/>
<rect x="290" y="190" width="10" height="10" fill="#000000"/>
<rect x="310" y="190" width="10" height="10" fill="#000000"/>
<rect x="330" y="190" width="10" height="10" fill="#000000"/>
<rect x="350" y="190" width="10" height="10" fill="#000000"/>
<rect x="360" y="190" width="10" height="10" fill="#000000"/>
<rect x="80" y="200" width="10" height="10" fill="#000000"/>
<rect x="100" y="200" width="10" height="10" fill="#000000"/>
<rect x="120" y="200" width="10" height="10" fill="#000000"/>
<rect x="130" y="200" width="10" height="10" fill="#000000"/>
<rect x="140" y="200" width="10" height="10" fill="#000000"/>
<rect x="150" y="200" width="10" height="10" fill="#000000"/>
<rect x="160" y="200" width="10" height="10" fill="#000000"/>
<rect x="270" y="200" width="10" height="10" fill="#000000"/>
<rect x="280" y="200" width="10" height="10" fill="#000000"/>
<rect x="310" y="200" width="10" height="10" fill="#000000"/>
<rect x="330" y="200" width="10" height="10" fill="#000000"/>
<rect x="360" y="200" width="10" height="10" fill="#000000"/>
<rect x="90" y="210" width="10" height="10" fill="#000000"/>
<rect x="150" y="210" width="10" height="10" fill="#000000"/>
<rect x="170" y="210" width="10" height="10" fill="#000000"/>
<rect x="300" y="210" width="10" height="10" fill="#000000"/>
<rect x="320" y="210" width="10" height="10" fill="#000000"/>
<rect x="340" y="210" width="10" height="10" fill="#000000"/>
<rect x="360" y="210" width="10" height="10" fill="#000000"/>
<rect x="80" y="220" width="10" height="10" fill="#000000"/>
<rect x="90" y="220" width="10" height="10" fill="#000000"/>
<rect x="100" y="220" width="10" height="10" fill="#000000"/>
<rect x="120" y="220" width="10" height="10" fill="#000000"/>
<rect x="140" y="220" width="10" height="10" fill="#000000"/>
<rect x="150" y="220" width="10" height="10" fill="#000000"/>
<rect x="170" y="220" width="10" height="10" fill="#000000"/>
<rect x="280" y="220" width="10" height="10" fill="#000000"/>
<rect x="320" y="220" width="10" height="10" fill="#000000"/>
<rect x="350" y="220" width="10" height="10" fill="#000000"/>
<rect x="360" y="220" width="10" height="10" fill="#000000"/>
<rect x="80" y="230" width="10" height="10" fill="#000000"/>
<rect x="90" y="230" width="10" height="10" fill="#000000"/>
<rect x="120" y="230" width="10" height="10" fill="#000000"/>
<rect x="130" y="230" width="10" height="10" fill="#000000"/>
<rect x="150" y="230" width="10" height="10" fill="#000000"/>
<rect x="160" y="230" width="10" height="10" fill="#000000"/>
<rect x="280" y="230" width="10" height="10" fill="#000000"/>
<rect x="290" y="230" width="10" height="10" fill="#000000"/>
<rect x="310" y="230" width="10" height="10" fill="#000000"/>
<rect x="330" y="230" width="10" height="10" fill="#000000"/>
<rect x="360" y="230" width="10" height="10" fill="#000000"/>
<rect x="90" y="240" width="10" height="10" fill="#000000"/>
<rect x="110" y="240" width="10" height="10" fill="#000000"/>
<rect x="140" y="240" width="10" height="10" fill="#000000"/>
<rect x="160" y="240" width="10" height="10" fill="#000000"/>
<rect x="170" y="240" width="10" height="10" fill="#000000"/>
<rect x="280" y="240" width="10" height="10" fill="#000000"/>
<rect x="290" y="240" width="10" height="10" fill="#000000"/>
<rect x="300" y="240" width="10" height="10" fill="#000000"/>
<rect x="320" y="240" width="10" height="10" fill="#000000"/>
<rect x="360" y="240" width="10" height="10" fill="#000000"/>
<rect x="80" y="250" width="10" height="10" fill="#000000"/>
<rect x="100" y="250" width="10" height="10" fill="#000000"/>
<rect x="150" y="250" width="10" height="10" fill="#000000"/>
<rect x="170" y="250" width="10" height="10" fill="#000000"/>
<rect x="270" y="250" width="10" height="10" fill="#000000"/>
<rect x="310" y="250" width="10" height="10" fill="#000000"/>
<rect x="330" y="250" width="10" height="10" fill="#000000"/>
<rect x="340" y="250" width="10" height="10" fill="#000000"/>
<rect x="360" y="250" width="10" height="10" fill="#000000"/>
<rect x="140" y="260" width="10" height="10" fill="#000000"/>
<rect x="160" y="260" width="10" height="10" fill="#000000"/>
<rect x="270" y="260" width="10" height="10" fill="#000000"/>
<rect x="310" y="260" width="10" height="10" fill="#000000"/>
<rect x="320" y="260" width="10" height="10" fill="#000000"/>
<rect x="330" y="260" width="10" height="10" fill="#000000"/>
<rect x="340" y="260" width="10" height="10" fill="#000000"/>
<rect x="360" y="260" width="10" height="10" fill="#000000"/>
<rect x="130" y="270" width="10" height="10" fill="#000000"/>
<rect x="150" y="270" width="10" height="10" fill="#000000"/>
<rect x="170" y="270" width="10" height="10" fill="#000000"/>
<rect x="180" y="270" width="10" height="10" fill="#000000"/>
<rect x="200" y="270" width="10" height="10" fill="#000000"/>
<rect x="220" y="270" width="10" height="10" fill="#000000"/>
<rect x="230" y="270" width="10" height="10" fill="#000000"/>
<rect x="250" y="270" width="10" height="10" fill="#000000"/>
<rect x="270" y="270" width="10" height="10" fill="#000000"/>
<rect x="280" y="270" width="10" height="10" fill="#000000"/>
<rect x="320" y="270" width="10" height="10" fill="#000000"/>
<rect x="330" y="270" width="10" height="10" fill="#000000"/>
<rect x="350" y="270" width="10" height="10" fill="#000000"/>
<rect x="360" y="270" width="10" height="10" fill="#000000"/>
<rect x="80" y="280" width="10" height="10" fill="#000000"/>
<rect x="90" y="280" width="10" height="10" fill="#000000"/>
<rect x="100" y="280" width="10" height="10" fill="#000000"/>
<rect x="110" y="280" width="10" height="10" fill="#000000"/>
<rect x="120" y="280" width="10" height="10" fill="#000000"/>
<rect x="140" y="280" width="10" height="10" fill="#000000"/>
<rect x="170" y="280" width="10" height="10" fill="#000000"/>
<rect x="200" y="280" width="10" height="10" fill="#000000"/>
<rect x="250" y="280" width="10" height="10" fill="#000000"/>
<rect x="260" y="280" width="10" height="10" fill="#000000"/>
<rect x="280" y="280" width="10" height="10" fill="#000000"/>
<rect x="290" y="280" width="10" height="10" fill="#000000"/>
<rect x="300" y="280" width="10" height="10" fill="#000000"/>
<rect x="310" y="280" width="10" height="10" fill="#000000"/>
<rect x="320" y="280" width="10" height="10" fill="#000000"/>
<rect x="330" y="280" width="10" height="10" fill="#000000"/>
<rect x="160" y="290" width="10" height="10" fill="#000000"/>
<rect x="170" y="290" width="10" height="10" fill="#000000"/>
<rect x="180" y="290" width="10" height="10" fill="#000000"/>
<rect x="200" y="290" width="10" height="10" fill="#000000"/>
<rect x="230" y="290" width="10" height="10" fill="#000000"/>
<rect x="240" y="290" width="10" height="10" fill="#000000"/>
<rect x="250" y="290" width="10" height="10" fill="#000000"/>
<rect x="270" y="290" width="10" height="10" fill="#000000"/>
<rect x="280" y="290" width="10" height="10" fill="#000000"/>
<rect x="320" y="290" width="10" height="10" fill="#000000"/>
<rect x="340" y="290" width="10" height="10" fill="#000000"/>
<rect x="360" y="290" width="10" height="10" fill="#000000"/>
<rect x="80" y="300" width="10" height="10" fill="#000000"/>
<rect x="90" y="300" width="10" height="10" fill="#000000"/>
<rect x="100" y="300" width="10" height="10" fill="#000000"/>
<rect x="110" y="300" width="10" height="10" fill="#000000"/>
<rect x="120" y="300" width="10" height="10" fill="#000000"/>
<rect x="130" y="300" width="10" height="10" fill="#000000"/>
<rect x="140" y="300" width="10" height="10" fill="#000000"/>
<rect x="160" y="300" width="10" height="10" fill="#000000"/>
<rect x="180" y="300" width="10" height="10" fill="#000000"/>
<rect x="260" y="300" width="10" height="10" fill="#000000"/>
<rect x="270" y="300" width="10" height="10" fill="#000000"/>
<rect x="280" y="300" width="10" height="10" fill="#000000"/>
<rect x="300" y="300" width="10" height="10" fill="#000000"/>
<rect x="320" y="300" width="10" height="10" fill="#000000"/>
<rect x="360" y="300" width="10" height="10" fill="#000000"/>
<rect x="80" y="310" width="10" height="10" fill="#000000"/>
<rect x="140" y="310" width="10" height="10" fill="#000000"/>
<rect x="160" y="310" width="10" height="10" fill="#000000"/>
<rect x="170" y="310" width="10" height="10" fill="#000000"/>
<rect x="180" y="310" width="10" height="10" fill="#000000"/>
<rect x="190" y="310" width="10" height="10" fill="#000000"/>
<rect x="200" y="310" width="10" height="10" fill="#000000"/>
<rect x="220" y="310" width="10" height="10" fill="#000000"/>
<rect x="230" y="310" width="10" height="10" fill="#000000"/>
<rect x="270" y="310" width="10" height="10" fill="#000000"/>
<rect x="280" y="310" width="10" height="10" fill="#000000"/>
<rect x="320" y="310" width="10" height="10" fill="#000000"/>
<rect x="330" y="310" width="10" height="10" fill="#000000"/>
<rect x="360" y="310" width="10" height="10" fill="#000000"/>
<rect x="80" y="320" width="10" height="10" fill="#000000"/>
<rect x="100" y="320" width="10" height="10" fill="#000000"/>
<rect x="110" y="320" width="10" height="10" fill="#000000"/>
<rect x="120" y="320" width="10" height="10" fill="#000000"/>
<rect x="140" y="320" width="10" height="10" fill="#000000"/>
<rect x="160" y="320" width="10" height="10" fill="#000000"/>
<rect x="170" y="320" width="10" height="10" fill="#000000"/>
<rect x="180" y="320" width="10" height="10" fill="#000000"/>
<rect x="190" y="320" width="10" height="10" fill="#000000"/>
<rect x="230" y="320" width="10" height="10" fill="#000000"/>
<rect x="240" y="320" width="10" height="10" fill="#000000"/>
<rect x="260" y="320" width="10" height="10" fill="#000000"/>
<rect x="270" y="320" width="10" height="10" fill="#000000"/>
<rect x="280" y="320" width="10" height="10" fill="#000000"/>
<rect x="290" y="320" width="10" height="10" fill="#000000"/>
<rect x="300" y="320" width="10" height="10" fill="#000000"/>
<rect x="310" y="320" width="10" height="10" fill="#000000"/>
<rect x="320" y="320" width="10" height="10" fill="#000000"/>
<rect x="80" y="330" width="10" height="10" fill="#000000"/>
<rect x="100" y="330" width="10" height="10" fill="#000000"/>
<rect x="110" y="330" width="10" height="10" fill="#000000"/>
<rect x="120" y="330" width="10" height="10" fill="#000000"/>
<rect x="140" y="330" width="10" height="10" fill="#000000"/>
<rect x="170" y="330" width="10" height="10" fill="#000000"/>
<rect x="180" y="330" width="10" height="10" fill="#000000"/>
<rect x="190" y="330" width="10" height="10" fill="#000000"/>
<rect x="200" y="330" width="10" height="10" fill="#000000"/>
<rect x="220" y="330" width="10" height="10" fill="#000000"/>
<rect x="230" y="330" width="10" height="10" fill="#000000"/>
<rect x="240" y="330" width="10" height="10" fill="#000000"/>
<rect x="250" y="330" width="10" height="10" fill="#000000"/>
<rect x="310" y="330" width="10" height="10" fill="#000000"/>
<rect x="330" y="330" width="10" height="10" fill="#000000"/>
<rect x="350" y="330" width="10" height="10" fill="#000000"/>
<rect x="80" y="340" width="10" height="10" fill="#000000"/>
<rect x="100" y="340" width="10" height="10" fill="#000000"/>
<rect x="110" y="340" width="10" height="10" fill="#000000"/>
<rect x="120" y="340" width="10" height="10" fill="#000000"/>
<rect x="140" y="340" width="10" height="10" fill="#000000"/>
<rect x="180" y="340" width="10" height="10" fill="#000000"/>
<rect x="200" y="340" width="10" height="10" fill="#000000"/>
<rect x="210" y="340" width="10" height="10" fill="#000000"/>
<rect x="260" y="340" width="10" height="10" fill="#000000"/>
<rect x="270" y="340" width="10" height="10" fill="#000000"/>
<rect x="280" y="340" width="10" height="10" fill="#000000"/>
<rect x="290" y="340" width="10" height="10" fill="#000000"/>
<rect x="350" y="340" width="10" height="10" fill="#000000"/>
<rect x="360" y="340" width="10" height="10" fill="#000000"/>
<rect x="80" y="350" width="10" height="10" fill="#000000"/>
<rect x="140" y="350" width="10" height="10" fill="#000000"/>
<rect x="180" y="350" width="10" height="10" fill="#000000"/>
<rect x="190" y="350" width="10" height="10" fill="#000000"/>
<rect x="200" y="350" width="10" height="10" fill="#000000"/>
<rect x="210" y="350" width="10" height="10" fill="#000000"/>
<rect x="240" y="350" width="10" height="10" fill="#000000"/>
<rect x="270" y="350" width="10" height="10" fill="#000000"/>
<rect x="290" y="350" width="10" height="10" fill="#000000"/>
<rect x="300" y="350" width="10" height="10" fill="#000000"/>
<rect x="310" y="350" width="10" height="10" fill="#000000"/>
<rect x="350" y="350" width="10" height="10" fill="#000000"/>
<rect x="360" y="350" width="10" height="10" fill="#000000"/>
<rect x="80" y="360" width="10" height="10" fill="#000000"/>
<rect x="90" y="360" width="10" height="10" fill="#000000"/>
<rect x="100" y="360" width="10" height="10" fill="#000000"/>
<rect x="110" y="360" width="10" height="10" fill="#000000"/>
<rect x="120" y="360" width="10" height="10" fill="#000000"/>
<rect x="130" y="360" width="10" height="10" fill="#000000"/>
<rect x="140" y="360" width="10" height="10" fill="#000000"/>
<rect x="180" y="360" width="10" height="10" fill="#000000"/>
<rect x="200" y="360" width="10" height="10" fill="#000000"/>
<rect x="210" y="360" width="10" height="10" fill="#000000"/>
<rect x="220" y="360" width="10" height="10" fill="#000000"/>
<rect x="230" y="360" width="10" height="10" fill="#000000"/>
<rect x="250" y="360" width="10" height="10" fill="#000000"/>
<rect x="270" y="360" width="10" height="10" fill="#000000"/>
<rect x="280" y="360" width="10" height="10" fill="#000000"/>
<rect x="290" y="360" width="10" height="10" fill="#000000"/>
<rect x="320" y="360" width="10" height="10" fill="#000000"/>
<rect x="330" y="360" width="10" height="10" fill="#000000"/>
<rect x="340" y="360" width="10" height="10" fill="#000000"/>
<rect x="350" y="360" width="10" height="10" fill="#000000"/>
<!-- Favicon icon centered with whitespace -->
<!-- Favicon scaled and centered -->
<g transform="translate(190, 190) scale(0.7)">
	<defs>
		<clipPath id="rounded">
			<rect width="100" height="100" rx="12" ry="12"/>
		</clipPath>
	</defs>
	<g clip-path="url(#rounded)">
		<!-- Row 5 (top, highest likelihood) -->
		<rect x="0"  y="0"  width="19" height="19" fill="#4caf50"/>
		<rect x="20" y="0"  width="19" height="19" fill="#ff9800"/>
		<rect x="40" y="0"  width="19" height="19" fill="#e53935"/>
		<rect x="60" y="0"  width="19" height="19" fill="#e53935"/>
		<rect x="80" y="0"  width="19" height="19" fill="#e53935"/>

		<!-- Row 4 -->
		<rect x="0"  y="20" width="19" height="19" fill="#4caf50"/>
		<rect x="20" y="20" width="19" height="19" fill="#ffca28"/>
		<rect x="40" y="20" width="19" height="19" fill="#ff9800"/>
		<rect x="60" y="20" width="19" height="19" fill="#e53935"/>
		<rect x="80" y="20" width="19" height="19" fill="#e53935"/>

		<!-- Row 3 -->
		<rect x="0"  y="40" width="19" height="19" fill="#4caf50"/>
		<rect x="20" y="40" width="19" height="19" fill="#8bc34a"/>
		<rect x="40" y="40" width="19" height="19" fill="#ffca28"/>
		<rect x="60" y="40" width="19" height="19" fill="#ff9800"/>
		<rect x="80" y="40" width="19" height="19" fill="#e53935"/>

		<!-- Row 2 -->
		<rect x="0"  y="60" width="19" height="19" fill="#4caf50"/>
		<rect x="20" y="60" width="19" height="19" fill="#8bc34a"/>
		<rect x="40" y="60" width="19" height="19" fill="#8bc34a"/>
		<rect x="60" y="60" width="19" height="19" fill="#ffca28"/>
		<rect x="80" y="60" width="19" height="19" fill="#ff9800"/>

		<!-- Row 1 (bottom, lowest likelihood) -->
		<rect x="0"  y="80" width="19" height="19" fill="#4caf50"/>
		<rect x="20" y="80" width="19" height="19" fill="#4caf50"/>
		<rect x="40" y="80" width="19" height="19" fill="#4caf50"/>
		<rect x="60" y="80" width="19" height="19" fill="#8bc34a"/>
		<rect x="80" y="80" width="19" height="19" fill="#ffca28"/>
	</g>
</g>
</svg>